<svg width="30" height="30" viewBox="0 0 30 30" fill="none" xmlns="http://www.w3.org/2000/svg">
<path fill-rule="evenodd" clip-rule="evenodd" d="M29.9992 26.504C29.9992 28.4335 23.2833 29.999 14.9995 29.999C6.71608 29.999 0.000251477 28.4335 0.000251477 26.504V21.0828C0.000251477 20.4714 0.675091 19.8962 1.86043 19.3962C0.675091 18.8963 0.000251477 18.3214 0.000251477 17.7102V12.289C0.000251477 11.6776 0.675091 11.1024 1.86043 10.6024L1.80523 10.5791L1.75091 10.5553L1.59223 10.4839L1.5408 10.4597L1.49 10.4358L1.44034 10.4113L1.39092 10.3871L1.38627 10.3847L1.29523 10.3383L1.24846 10.3132L1.20244 10.2886L1.11316 10.2387L1.06941 10.2137L1.02691 10.1886L0.984786 10.1634L0.94392 10.1378L0.903433 10.1124L0.864076 10.0872L0.798189 10.0435L0.788256 10.0366L0.787376 10.0359L0.750912 10.0101L0.714825 9.98431L0.679492 9.95803L0.645165 9.93188L0.611593 9.9061L0.578901 9.87945L0.547844 9.85417L0.485854 9.80073L0.472526 9.78916L0.456432 9.7742L0.400101 9.72001L0.376965 9.69687L0.30806 9.62306L0.305042 9.61992L0.299132 9.61313L0.238778 9.53907L0.234377 9.53429L0.232742 9.5319L0.181315 9.4596L0.165095 9.43509L0.124733 9.36756L0.124356 9.36681L0.120583 9.36052L0.115805 9.35122L0.0823589 9.28307L0.077455 9.27263L0.0754432 9.2676C0.0636238 9.24057 0.0536904 9.21328 0.044763 9.18625L0.0435056 9.18273C0.0339495 9.15418 0.0264051 9.12564 0.0199925 9.09697L0.019741 9.09509L0.0179806 9.08629C0.0061612 9.02995 0 8.97287 0 8.91541V3.49418C0 1.56472 6.71596 -0.000976562 14.9992 -0.000976562C23.2832 -0.000976562 29.999 1.56472 29.999 3.49418V8.91541C29.999 8.97287 29.9928 9.0297 29.9811 9.08629L29.9794 9.09509L29.979 9.09697C29.9726 9.12564 29.965 9.15418 29.9555 9.18273L29.9542 9.18625C29.9453 9.21366 29.9355 9.24057 29.9235 9.2676L29.9215 9.27263L29.9168 9.28307L29.8832 9.35122L29.8784 9.36052L29.8746 9.36681L29.8743 9.36756L29.8339 9.43509L29.8177 9.4596C29.8017 9.48387 29.7851 9.50814 29.7663 9.5319L29.7646 9.53429L29.7602 9.53907L29.6999 9.61313L29.694 9.61992L29.6909 9.62306L29.622 9.69687L29.5989 9.72001L29.5426 9.7742L29.5265 9.78916L29.5131 9.80073L29.4511 9.85417L29.4201 9.87945L29.3874 9.9061L29.3538 9.93188L29.3195 9.95803L29.2842 9.98431L29.2481 10.0101L29.2116 10.0359L29.2107 10.0366L29.2008 10.0435L29.1349 10.0872L29.0956 10.1124L29.0551 10.1378L29.0142 10.1634L28.9722 10.1886L28.9297 10.2137L28.8858 10.2387L28.7966 10.2886L28.7505 10.3132L28.7038 10.3383L28.6127 10.3847L28.6081 10.3871L28.5587 10.4113L28.509 10.4358L28.4582 10.4597L28.4068 10.4839L28.2481 10.5553L28.1938 10.5791L28.1386 10.6024C29.3239 11.1024 29.9987 11.6776 29.9987 12.289V17.7102C29.9987 18.3214 29.3239 18.8963 28.1386 19.3962C29.3239 19.8962 29.9987 20.4714 29.9987 21.0828V26.504H29.9992ZM5.00013 4.99978H24.9992V24.999H5.00013V4.99978Z" fill="#20A8D8"/>
</svg>
