<svg width="20" height="20" viewBox="0 0 20 20" fill="none" xmlns="http://www.w3.org/2000/svg">
<path fill-rule="evenodd" clip-rule="evenodd" d="M10 0C15.5228 0 20 4.4772 20 10C20 11.8223 19.5123 13.5305 18.6607 15.0018L20 20L15.0017 18.6608C13.5304 19.5124 11.8222 20 10 20C4.4772 20 0 15.5228 0 10C0 4.4772 4.4772 0 10 0ZM8.88591 11.413V10.8424C8.88591 10.4099 8.97424 10.043 9.15079 9.74409C9.32734 9.44749 9.64217 9.15532 10.0928 8.87232C10.4506 8.64813 10.7087 8.44429 10.8649 8.2631C11.0235 8.08202 11.1004 7.87365 11.1004 7.64039C11.1004 7.45468 11.0167 7.30754 10.8491 7.19877C10.6815 7.09241 10.4619 7.03793 10.1924 7.03793C9.52433 7.03793 8.7431 7.2735 7.84857 7.74675L6.92694 5.94197C8.02743 5.31473 9.17788 5 10.3781 5C11.363 5 12.1375 5.21744 12.6992 5.6499C13.2608 6.08236 13.5438 6.67355 13.5438 7.42074C13.5438 7.95522 13.417 8.41941 13.1679 8.80897C12.9189 9.20064 12.518 9.57207 11.97 9.92074C11.5059 10.222 11.2138 10.4416 11.0983 10.5797C10.9804 10.7201 10.9217 10.8854 10.9217 11.0756V11.413H8.88591ZM8.60049 13.7319C8.60049 13.3266 8.71833 13.0118 8.95379 12.79C9.19158 12.5703 9.54024 12.4592 10 12.4592C10.4416 12.4592 10.7813 12.5702 11.0168 12.7944C11.2545 13.0186 11.3723 13.3311 11.3723 13.7319C11.3723 14.135 11.2501 14.4475 11.0054 14.6695C10.7586 14.889 10.4235 15.0001 10 15.0001C9.56069 15.0001 9.21877 14.8914 8.97192 14.6717C8.72286 14.4521 8.60049 14.1396 8.60049 13.732V13.7319Z" fill="white"/>
</svg>
