<svg width="16" height="16" viewBox="0 0 16 16" fill="none" xmlns="http://www.w3.org/2000/svg">
<path fill-rule="evenodd" clip-rule="evenodd" d="M0.00172194 11.4687C-0.0141179 11.8657 0.0751706 12.1196 0.44312 12.4429C0.730861 12.6957 1.05664 12.7997 1.43205 12.7997H7.99996H14.5679C14.9434 12.7997 15.2691 12.6956 15.5568 12.4429C15.9247 12.1196 16.014 11.8657 15.9982 11.4687C15.9737 10.8512 15.4265 10.5417 15.0481 10.2122C12.9534 8.38899 14.0133 6.69351 13.5149 4.11353C13.0374 1.6421 10.7609 0.117538 7.99996 0C5.23897 0.117538 2.96247 1.6421 2.48505 4.11353C1.98665 6.69351 3.04651 8.38899 0.951812 10.2122C0.573269 10.5417 0.0262385 10.8512 0.00172194 11.4687ZM8.01691 15.9998C9.41828 15.9998 10.5753 14.9537 10.7498 13.5998H5.28417C5.45871 14.9537 6.61563 15.9998 8.01701 15.9998H8.01691Z" fill="#22232B"/>
</svg>
