<svg width="30" height="30" viewBox="0 0 30 30" fill="none" xmlns="http://www.w3.org/2000/svg">
<path fill-rule="evenodd" clip-rule="evenodd" d="M2.50002 2.50002H6.25005V0H8.75007V2.50002H11.2501V0H13.7501V2.50002H16.2501V0H18.7502V2.50002H21.2502V0H23.7502V2.50002H27.5002V6.25005H30.0003V8.75007H27.5002V11.2501H30.0003V13.7501H27.5002V16.2501H30.0003V18.7502H27.5002V21.2502H30.0003V23.7502H27.5002V27.5002H23.7502V30.0003H21.2502V27.5002H18.7502V30.0003H16.2501V27.5002H13.7501V30.0003H11.2501V27.5002H8.75007V30.0003H6.25005V27.5002H2.50002V23.7502H0V21.2502H2.50002V18.7502H0V16.2501H2.50002V13.7501H0V11.2501H2.50002V8.75007H0V6.25005H2.50002V2.50002ZM6.25005 6.25005H23.7501V23.7501H6.25005V6.25005ZM8.75007 8.75007H21.2501V21.2501H8.75007V8.75007Z" fill="#20A8D8"/>
</svg>
