<svg width="30" height="30" viewBox="0 0 30 30" fill="none" xmlns="http://www.w3.org/2000/svg">
<path fill-rule="evenodd" clip-rule="evenodd" d="M30.0001 1.25001C30.0001 0.559682 29.4404 0 28.7501 0H20V3.75003H22.9735L3.75003 22.9735V20H0V28.7501C0 29.4404 0.559682 30.0001 1.25001 30.0001H10.0001V26.2501H5.77676L26.2502 5.77663V9.99996H30.0003V1.24988L30.0001 1.25001ZM10.0001 0H1.25001C0.559682 0 0 0.559682 0 1.25001V10.0001H3.75003V5.00004C3.75003 4.30971 4.30971 3.75003 5.00004 3.75003H10.0001V0ZM20 30H28.7501C29.4404 30 30.0001 29.4403 30.0001 28.75V19.9999H26.2501V25C26.2501 25.6903 25.6904 26.25 25.0001 26.25H20V30Z" fill="#20A8D8"/>
</svg>
