<svg width="30" height="30" viewBox="0 0 30 30" fill="none" xmlns="http://www.w3.org/2000/svg">
<path d="M30 7.80592C30 7.02368 29.3583 6.31634 28.3333 5.76711L19.1667 0.898931C17.8783 0.306669 16.4767 0 15.0583 0C13.64 0 12.2384 0.306669 10.95 0.898931L1.66667 5.76711C1.24927 5.93817 0.879607 6.20771 0.589342 6.55264C0.299077 6.89757 0.0968571 7.30762 0 7.74767L0 7.92242V12.7323C0.0532504 13.2117 0.236655 13.6673 0.530395 14.0501C0.824136 14.4329 1.21704 14.7283 1.66667 14.9043L10.8333 19.7725C12.1217 20.3647 13.5233 20.6714 14.9417 20.6714C16.36 20.6714 17.7616 20.3647 19.05 19.7725L28.2167 14.9043C29.3417 14.3051 29.8833 13.5229 29.8833 12.7323C30 12.7323 30 7.97235 30 7.80592ZM13.1417 1.89753C13.7246 1.63001 14.3585 1.4915 15 1.4915C15.6415 1.4915 16.2754 1.63001 16.8583 1.89753L26.4167 6.95711C27.4333 7.49801 27.4333 8.38011 26.4167 8.92102C25.8338 9.18854 25.1998 9.32705 24.5583 9.32705C23.9168 9.32705 23.2829 9.18854 22.7 8.92102L13.1417 3.86145C12.125 3.32886 12.125 2.43844 13.1417 1.89753ZM8.33333 4.42732C8.9148 4.15996 9.54735 4.02153 10.1875 4.02153C10.8276 4.02153 11.4602 4.15996 12.0417 4.42732L21.6667 9.48689C22.6917 10.0278 22.6917 10.9099 21.6667 11.4508C21.0852 11.7182 20.4526 11.8566 19.8125 11.8566C19.1724 11.8566 18.5398 11.7182 17.9583 11.4508L8.33333 6.39123C7.34167 5.82536 7.34167 4.99319 8.33333 4.42732ZM3.55 6.92382C4.1329 6.6563 4.76682 6.51779 5.40833 6.51779C6.04984 6.51779 6.68377 6.6563 7.26667 6.92382L16.825 11.9834C17.8417 12.5243 17.8417 13.4064 16.825 13.9473C16.2409 14.2106 15.6075 14.3468 14.9667 14.3468C14.3259 14.3468 13.6924 14.2106 13.1083 13.9473L3.58333 8.92102C2.56667 8.38011 2.56667 7.48969 3.58333 6.95711L3.55 6.92382ZM28.3333 17.95L19.1667 22.8182C17.8771 23.4062 16.476 23.7105 15.0583 23.7105C13.6407 23.7105 12.2396 23.4062 10.95 22.8182L1.66667 17.95C1.2226 17.7751 0.833693 17.4844 0.540527 17.1082C0.247362 16.7321 0.0606909 16.2842 0 15.8114L0 22.0609C0.0532504 22.5403 0.236655 22.9959 0.530395 23.3787C0.824136 23.7615 1.21704 24.0569 1.66667 24.2329L10.8333 29.1011C12.1217 29.6933 13.5233 30 14.9417 30C16.36 30 17.7616 29.6933 19.05 29.1011L28.2167 24.2329C29.3417 23.6337 29.8833 22.8515 29.8833 22.0609V15.8114C29.8334 16.2716 29.6642 16.711 29.3924 17.086C29.1206 17.4611 28.7556 17.7589 28.3333 17.95Z" fill="#20A8D8"/>
</svg>
