<svg width="30" height="30" viewBox="0 0 30 30" fill="none" xmlns="http://www.w3.org/2000/svg">
<path fill-rule="evenodd" clip-rule="evenodd" d="M26.25 26.25H28.75V28.75H26.25V26.25ZM1.24995 26.25H3.75V28.75H1.24995V26.25ZM28.7485 21.2501H16.25V25H18.75V30H11.25V25H13.7501V21.2501H1.25146H1.24995C0.559713 21.2501 0 20.6903 0 20V1.24995C0 0.559713 0.559713 0 1.24995 0H28.75C29.4403 0 30 0.559713 30 1.24995V20C30 20.6903 29.4403 21.2501 28.75 21.2501H28.7485ZM10.0676 4.54312C12.7917 1.81918 17.2083 1.81918 19.9324 4.54312C22.6567 7.2672 22.6567 11.6839 19.9324 14.408L16.0048 18.3356C15.4522 18.8882 14.5478 18.8882 13.9951 18.3356L10.0674 14.408C7.34319 11.6839 7.34319 7.2672 10.0674 4.54312H10.0676ZM11.8354 6.31093C13.5834 4.56306 16.4169 4.56306 18.1648 6.31093C19.9125 8.05896 19.9125 10.8924 18.1648 12.6403C16.4167 14.3882 13.5833 14.3882 11.8354 12.6403C10.0877 10.8923 10.0877 8.05881 11.8354 6.31093ZM6.2502 26.2502H8.7501V28.7502H6.2502V26.2502ZM21.2502 26.2502H23.7501V28.7502H21.2502V26.2502Z" fill="#20A8D8"/>
</svg>
