<svg width="19" height="20" viewBox="0 0 19 20" fill="none" xmlns="http://www.w3.org/2000/svg">
<path d="M4.41835 5.35139H4.16764L3.699 7.69521H4.88699L4.41835 5.35139ZM5.84608 17.6561L5.9466 18.46C6.01369 18.9984 6.37147 19.5474 6.95979 19.8216C8.07035 18.5991 7.39842 19.3387 8.92692 17.6561H5.84608ZM8.5376 1.5396C8.42839 0.661849 7.67826 -0.00012207 6.79358 -0.00012207H0.757773C-0.211537 -0.00012207 -1 0.788341 -1 1.75765V14.7263C-1 15.6956 -0.211537 16.4842 0.757773 16.4842C4.26046 16.4842 6.78034 16.4842 9.99813 16.4842C10.169 16.2889 10.3123 16.1664 10.3183 15.9114C10.3198 15.8475 8.54555 1.60304 8.5376 1.5396ZM6.18533 11.1993C5.87459 11.2632 5.55981 11.0616 5.49587 10.7397L5.12131 8.86693H3.46455L3.08999 10.7397C3.02706 11.0568 2.72149 11.265 2.40053 11.1993C2.08348 11.1357 1.87754 10.8274 1.94097 10.5098L3.11282 4.65045C3.16768 4.37691 3.40805 4.17941 3.68727 4.17941H4.89821C5.1773 4.17941 5.41768 4.37691 5.47254 4.65045L6.64438 10.5098C6.70807 10.8275 6.502 11.1358 6.18495 11.1993H6.18533ZM17.2422 3.55439H9.96546L11.4827 15.7294C11.5096 16.2274 11.3735 16.6963 11.0485 17.0633L8.47909 19.9998H17.2424C18.2117 19.9998 19.0001 19.2113 19.0001 18.242V5.35126C19.0001 4.38195 18.2117 3.55439 17.2424 3.55439H17.2422ZM17.2422 10.0389H17.0857C16.7523 11.1085 16.2236 11.9455 15.6741 12.6053C16.1047 12.9989 16.5649 13.3217 17.0225 13.6833C17.2748 13.8854 17.316 14.2538 17.1136 14.5067C16.9118 14.7592 16.5419 14.8002 16.2901 14.5978C15.7929 14.2053 15.3262 13.8768 14.8594 13.4485C14.3927 13.8768 13.965 14.2053 13.4678 14.5978C13.216 14.8003 12.846 14.7593 12.6444 14.5067C12.4417 14.2538 12.4829 13.8854 12.7354 13.6833C13.1931 13.3218 13.6143 12.9989 14.0446 12.6053C13.4951 11.9456 13.0054 11.1086 12.6721 10.0389H12.5156C12.1917 10.0389 11.9297 9.77684 11.9297 9.45286C11.9297 9.129 12.1916 8.86693 12.5156 8.86693H14.2735V8.28088C14.2735 7.95702 14.5354 7.69496 14.8594 7.69496C15.1833 7.69496 15.4454 7.9569 15.4454 8.28088V8.86693H17.2424C17.5661 8.86693 17.8283 9.12887 17.8283 9.45286C17.8283 9.77672 17.5662 10.0389 17.2424 10.0389H17.2422ZM13.8973 10.0389C14.1503 10.7185 14.4869 11.2686 14.8593 11.7368C15.2317 11.2686 15.6073 10.7184 15.8603 10.0389H13.8973Z" fill="white"/>
</svg>
