<svg width="34" height="30" viewBox="0 0 34 30" fill="none" xmlns="http://www.w3.org/2000/svg">
<g clip-path="url(#clip0_1035_3544)">
<path d="M13.3546 25.8593C14.2739 26.7794 15.3068 27.5442 16.4399 28.1598C17.5802 28.7754 18.7742 29.2353 20.022 29.5397C21.2696 29.8442 22.5236 30 23.778 30C25.4416 29.9933 26.9038 29.7497 28.1781 29.2693C29.4457 28.7955 30.5124 28.1391 31.3775 27.3005C32.2425 26.4615 32.8933 25.5006 33.3363 24.418C33.7788 23.3286 34.0004 22.1717 34.0004 20.9471C33.9932 19.8035 33.8121 18.8091 33.4571 17.9499C33.0949 17.0974 32.6186 16.36 32.015 15.7309C31.4113 15.1014 30.7268 14.5601 29.9758 14.1003C29.2244 13.64 28.4463 13.241 27.6415 12.8891C26.8368 12.5372 26.0586 12.2126 25.3072 11.9082C24.5562 11.6104 23.8721 11.306 23.2685 10.9881C22.6648 10.6769 22.1885 10.3317 21.8263 9.94622C21.4707 9.56695 21.2897 9.12057 21.2831 8.60607C21.2831 8.20716 21.3905 7.85515 21.6049 7.544C21.8197 7.23293 22.1481 6.98931 22.5978 6.81331C23.0536 6.63059 23.6306 6.53572 24.3414 6.53572C25.0994 6.54292 25.8643 6.65753 26.6352 6.88092C27.4068 7.11112 28.1378 7.41548 28.8355 7.80104C29.5328 8.17982 30.157 8.61327 30.7002 9.09322L33.6781 3.28828C32.8397 2.54416 31.9341 1.92849 30.9483 1.44141C29.9624 0.954256 28.9428 0.59554 27.8762 0.358716C26.8162 0.115097 25.7434 0 24.6635 0C23.1477 0.00671262 21.7526 0.216768 20.4915 0.636307C19.2238 1.05544 18.1235 1.65761 17.1913 2.43578C16.2522 3.21395 15.5344 4.1475 15.0181 5.23691C14.5082 6.32623 14.2467 7.54408 14.24 8.89045C14.2467 10.0206 14.4278 11.015 14.79 11.8743C15.1455 12.7268 15.6218 13.4708 16.2255 14.1071C16.8292 14.743 17.5132 15.2977 18.2646 15.7714C19.0156 16.2451 19.7937 16.6646 20.5985 17.0367C21.4036 17.402 22.1818 17.7473 22.9328 18.0585C23.6909 18.3764 24.3683 18.701 24.9719 19.0261C25.5756 19.3507 26.0585 19.7026 26.4141 20.0881C26.7696 20.4808 26.9507 20.9272 26.9573 21.4345C26.9573 21.8204 26.8433 22.1584 26.6218 22.463C26.4008 22.7741 26.0719 23.011 25.6293 23.1937C25.1863 23.3697 24.6363 23.4578 23.979 23.4645C23.1139 23.4506 22.2555 23.302 21.397 23.0042C20.5452 22.7065 19.74 22.3277 18.9957 21.8674C18.2442 21.4143 17.6006 20.9472 17.0573 20.4601L13.3545 25.8595L13.3546 25.8593Z" fill="#B03273"/>
<path d="M21.6254 17.4968C21.6683 17.0696 21.6906 16.6309 21.6928 16.1808C21.6856 14.7126 21.4646 13.373 21.0149 12.1552C20.5657 10.9373 19.9284 9.88199 19.1037 8.99552C18.2719 8.10225 17.2856 7.41895 16.1387 6.93188C15.6407 6.72035 15.1186 6.55482 14.5726 6.43457C14.3559 7.19915 14.2445 8.01768 14.2402 8.89024C14.2469 10.0204 14.428 11.0148 14.7902 11.8741C15.1457 12.7266 15.622 13.4706 16.2256 14.1069C16.8293 14.7427 17.5134 15.2975 18.2648 15.7712C19.0158 16.2449 19.7939 16.6644 20.5987 17.0365C20.946 17.1941 21.2882 17.3479 21.6254 17.4969V17.4968Z" fill="#4E263B"/>
<path d="M0 29.5132H7.04273V20.5416H11.9526C13.3544 20.5348 14.6289 20.2845 15.7758 19.7905C16.9227 19.2966 17.9088 18.5997 18.7404 17.6998C19.5654 16.7999 20.2027 15.7377 20.6521 14.5131C21.1014 13.2884 21.3228 11.942 21.3295 10.4738C21.3228 9.00554 21.1014 7.66588 20.6521 6.44803C20.2026 5.23018 19.5654 4.17474 18.7404 3.28835C17.9088 2.39524 16.9227 1.71187 15.7758 1.22479C14.6289 0.737636 13.3544 0.494017 11.9526 0.487305H0V29.5132H0ZM7.04273 14.4523V6.57671H10.6245C11.4026 6.58351 12.0531 6.74584 12.5831 7.07058C13.1063 7.39533 13.502 7.84867 13.7703 8.43734C14.0319 9.01929 14.1661 9.69579 14.1661 10.474C14.1661 11.252 14.0319 11.9353 13.7636 12.5307C13.4953 13.1261 13.0861 13.593 12.5429 13.9381C11.9996 14.2764 11.3221 14.4455 10.5038 14.4523H7.04273V14.4523Z" fill="#B03273"/>
<path d="M15.5033 1.11426L15.4949 1.13186C14.9849 2.22118 14.7235 3.43903 14.7168 4.7854C14.7189 5.14224 14.7384 5.48532 14.7755 5.81514C14.8489 5.61859 14.9298 5.42589 15.0183 5.23703C15.5346 4.14762 16.2523 3.21408 17.1915 2.43591C17.2919 2.35208 17.3942 2.27038 17.4986 2.19057C16.971 1.80975 16.3972 1.48845 15.7763 1.22469C15.6861 1.18638 15.595 1.14954 15.5033 1.11426Z" fill="#4E263B"/>
</g>
<defs>
<clipPath id="clip0_1035_3544">
<rect width="34" height="30" fill="white"/>
</clipPath>
</defs>
</svg>
