<svg width="34" height="30" viewBox="0 0 34 30" fill="none" xmlns="http://www.w3.org/2000/svg">
<g clip-path="url(#clip0_219_16)">
<path d="M13.3541 25.8594C14.2734 26.7795 15.3063 27.5443 16.4395 28.1599C17.5797 28.7756 18.7737 29.2354 20.0215 29.5398C21.2691 29.8443 22.5231 30.0001 23.7775 30.0001C25.4411 29.9934 26.9033 29.7498 28.1776 29.2694C29.4452 28.7956 30.5119 28.1393 31.377 27.3007C32.242 26.4616 32.8928 25.5007 33.3358 24.4181C33.7784 23.3287 33.9999 22.1718 33.9999 20.9472C33.9928 19.8037 33.8116 18.8092 33.4566 17.9501C33.0944 17.0976 32.6181 16.3601 32.0145 15.7311C31.4108 15.1015 30.7263 14.5602 29.9753 14.1004C29.2239 13.6401 28.4458 13.2412 27.641 12.8892C26.8363 12.5373 26.0582 12.2127 25.3067 11.9083C24.5557 11.6105 23.8716 11.3061 23.268 10.9882C22.6643 10.677 22.188 10.3318 21.8258 9.94634C21.4702 9.56708 21.2893 9.12069 21.2826 8.60619C21.2826 8.20728 21.39 7.85528 21.6044 7.54412C21.8192 7.23305 22.1476 6.98943 22.5973 6.81343C23.0531 6.63072 23.6301 6.53584 24.3409 6.53584C25.0989 6.54304 25.8638 6.65765 26.6347 6.88105C27.4063 7.11124 28.1373 7.4156 28.8351 7.80117C29.5323 8.17994 30.1565 8.61339 30.6997 9.09334L33.6776 3.2884C32.8392 2.54429 31.9336 1.92861 30.9478 1.44153C29.962 0.954378 28.9423 0.595662 27.8757 0.358838C26.8157 0.115219 25.7429 0.00012207 24.663 0.00012207C23.1472 0.00683469 21.7522 0.21689 20.491 0.636429C19.2233 1.05556 18.123 1.65773 17.1909 2.4359C16.2517 3.21407 15.5339 4.14762 15.0176 5.23703C14.5077 6.32635 14.2462 7.5442 14.2395 8.89058C14.2462 10.0208 14.4273 11.0151 14.7895 11.8744C15.1451 12.7269 15.6213 13.471 16.225 14.1073C16.8287 14.7431 17.5127 15.2979 18.2641 15.7715C19.0151 16.2452 19.7932 16.6648 20.598 17.0368C21.4031 17.4021 22.1813 17.7474 22.9323 18.0586C23.6904 18.3765 24.3678 18.7011 24.9714 19.0262C25.5751 19.3508 26.058 19.7027 26.4136 20.0882C26.7691 20.4809 26.9502 20.9273 26.9568 21.4346C26.9568 21.8206 26.8428 22.1586 26.6213 22.4631C26.4003 22.7742 26.0714 23.0111 25.6289 23.1938C25.1858 23.3698 24.6359 23.4579 23.9785 23.4647C23.1134 23.4507 22.255 23.3022 21.3965 23.0043C20.5448 22.7066 19.7396 22.3278 18.9952 21.8675C18.2437 21.4144 17.6001 20.9473 17.0568 20.4603L13.354 25.8596L13.3541 25.8594Z" fill="#B03273"/>
<path d="M21.6249 17.497C21.6678 17.0697 21.6901 16.6311 21.6923 16.181C21.6852 14.7128 21.4641 13.3732 21.0144 12.1554C20.5652 10.9375 19.9279 9.88217 19.1032 8.9957C18.2714 8.10243 17.2851 7.41913 16.1382 6.93206C15.6402 6.72053 15.1181 6.55501 14.5721 6.43475C14.3554 7.19934 14.244 8.01787 14.2397 8.89043C14.2464 10.0206 14.4275 11.015 14.7897 11.8743C15.1453 12.7268 15.6215 13.4708 16.2252 14.1071C16.8289 14.7429 17.5129 15.2977 18.2643 15.7714C19.0153 16.2451 19.7934 16.6646 20.5982 17.0367C20.9455 17.1943 21.2878 17.3481 21.6249 17.4971V17.497Z" fill="#4E263B"/>
<path d="M0 29.5129H7.04273V20.5413H11.9526C13.3544 20.5345 14.6289 20.2843 15.7758 19.7903C16.9227 19.2964 17.9088 18.5994 18.7404 17.6996C19.5654 16.7997 20.2027 15.7375 20.6521 14.5128C21.1014 13.2882 21.3228 11.9417 21.3295 10.4736C21.3228 9.00529 21.1014 7.66563 20.6521 6.44778C20.2026 5.22993 19.5654 4.1745 18.7404 3.28811C17.9088 2.395 16.9227 1.71162 15.7758 1.22455C14.6289 0.737392 13.3544 0.493773 11.9526 0.487061H0V29.5129H0ZM7.04273 14.452V6.57647H10.6245C11.4026 6.58326 12.0531 6.74559 12.5831 7.07034C13.1063 7.39508 13.502 7.84843 13.7703 8.43709C14.0319 9.01904 14.1661 9.69554 14.1661 10.4737C14.1661 11.2517 14.0319 11.9351 13.7636 12.5305C13.4953 13.1259 13.0861 13.5928 12.5429 13.9378C11.9996 14.2762 11.3221 14.4453 10.5038 14.4521H7.04273V14.452Z" fill="#B03273"/>
<path d="M15.5028 1.11414L15.4944 1.13174C14.9844 2.22106 14.723 3.43891 14.7163 4.78528C14.7184 5.14212 14.7379 5.4852 14.775 5.81501C14.8484 5.61847 14.9293 5.42576 15.0178 5.23691C15.5341 4.1475 16.2518 3.21396 17.191 2.43578C17.2914 2.35196 17.3937 2.27026 17.4981 2.19045C16.9705 1.80963 16.3967 1.48832 15.7758 1.22457C15.6856 1.18626 15.5946 1.14942 15.5028 1.11414Z" fill="#4E263B"/>
</g>
<defs>
<clipPath id="clip0_219_16">
<rect width="34" height="30" fill="white"/>
</clipPath>
</defs>
</svg>
