<svg width="20" height="20" viewBox="0 0 20 20" fill="none" xmlns="http://www.w3.org/2000/svg">
<path fill-rule="evenodd" clip-rule="evenodd" d="M0.000100713 1.83206e-05H4.00012V4.00004H0.000100713V1.83206e-05ZM16.0001 16H20.0001V20H16.0001V16ZM16.0001 7.99996H20.0001V12H16.0001V7.99996ZM16.0001 -8.23924e-05H20.0001V3.99994H16.0001V-8.23924e-05ZM8.00004 15.9999H12.0001V19.9999H8.00004V15.9999ZM8.00004 7.99986H12.0001V11.9999H8.00004V7.99986ZM8.00004 -0.000183105H12.0001V3.99984H8.00004V-0.000183105ZM0 15.9998H4.00002V19.9998H0V15.9998ZM0 7.99976H4.00002V11.9998H0V7.99976Z" fill="white"/>
</svg>
