<svg width="20" height="20" viewBox="0 0 20 20" fill="none" xmlns="http://www.w3.org/2000/svg">
<path d="M19.5134 11.3963C19.3087 11.3451 19.1042 11.3963 18.9252 11.5248C18.2603 12.0898 17.493 12.552 16.6491 12.8602C15.8563 13.1684 14.9867 13.3225 14.0661 13.3225C11.9946 13.3225 10.1021 12.475 8.74667 11.1137C7.39117 9.75261 6.5473 7.85225 6.5473 5.77203C6.5473 4.89884 6.70068 4.05134 6.95649 3.28079C7.23779 2.45897 7.64698 1.7143 8.18398 1.07215C8.41421 0.789649 8.36295 0.37874 8.08166 0.147604C7.90269 0.0191945 7.69804 -0.0321692 7.4935 0.0191944C5.31971 0.609877 3.42721 1.91955 2.07171 3.66601C0.767375 5.3866 0.000244141 7.51819 0.000244141 9.82965C0.000244141 12.629 1.12551 15.1715 2.96685 17.0205C4.80828 18.8696 7.31453 19.9996 10.1277 19.9996C12.4805 19.9996 14.6545 19.1777 16.3934 17.8167C18.1581 16.4299 19.4369 14.4524 19.974 12.1924C20.0762 11.8327 19.8716 11.4733 19.5136 11.3961L19.5134 11.3963Z" fill="white"/>
</svg>
