<svg width="30" height="30" viewBox="0 0 30 30" fill="none" xmlns="http://www.w3.org/2000/svg">
<path fill-rule="evenodd" clip-rule="evenodd" d="M29.9991 26.5039C29.9991 28.4335 23.2833 29.999 14.9994 29.999C6.71593 29.999 0.000251476 28.4335 0.000251476 26.5039V21.0827C0.000251476 20.4713 0.674963 19.8961 1.8603 19.3961C0.674963 18.8963 0.000251476 18.3213 0.000251476 17.7101V12.2889C0.000251476 11.6776 0.674963 11.1023 1.8603 10.6024L1.80522 10.579L1.75078 10.5552L1.59222 10.4838L1.54067 10.4597L1.49 10.4358L1.44033 10.4113L1.39079 10.387L1.38626 10.3846L1.2951 10.3382L1.24845 10.3132L1.20243 10.2886L1.11303 10.2386L1.06928 10.2136L1.02678 10.1886L0.984656 10.1633L0.943791 10.1378L0.903429 10.1124L0.863947 10.0871L0.79806 10.0435L0.788253 10.0366L0.787373 10.0358L0.750783 10.01L0.714696 9.98427L0.679363 9.95799L0.645037 9.93184L0.611591 9.90606L0.578773 9.8794L0.547716 9.85413L0.485727 9.80069L0.472524 9.78912L0.45643 9.77416L0.399973 9.71984L0.376963 9.69683L0.308059 9.62302L0.304915 9.61988L0.299131 9.61309L0.238651 9.53903L0.234376 9.53413L0.232616 9.53174L0.181314 9.45956L0.165094 9.43505L0.124732 9.36752L0.124229 9.36677L0.120457 9.36048L0.115679 9.35118L0.0822328 9.28303L0.0774547 9.27259L0.0754429 9.26744C0.0634978 9.24053 0.0536902 9.21324 0.0446371 9.18621L0.0433797 9.18269C0.0339493 9.15402 0.026405 9.12548 0.0199924 9.09694L0.0196152 9.09505L0.0179806 9.08625C0.00603737 9.03007 1.09702e-05 8.9728 0 8.91537V3.49417C0 1.56459 6.7158 -0.000976562 14.9992 -0.000976562C23.2832 -0.000976562 29.9989 1.56459 29.9989 3.49417V8.91537C29.9989 8.97283 29.9928 9.02954 29.981 9.08625L29.9794 9.09505L29.9789 9.09694C29.9725 9.12548 29.9649 9.15402 29.9555 9.18269L29.9542 9.18621C29.9452 9.21362 29.9355 9.24053 29.9234 9.26744L29.9214 9.27259L29.9168 9.28303L29.8832 9.35118L29.8784 9.36048L29.8746 9.36677L29.8743 9.36752L29.8338 9.43505L29.8176 9.45956C29.8016 9.48383 29.7851 9.50797 29.7663 9.53174L29.7645 9.53413L29.7602 9.53903L29.6999 9.61309L29.694 9.61988L29.6908 9.62302L29.6219 9.69683L29.5989 9.71984L29.5424 9.77416L29.5263 9.78912L29.5131 9.80069L29.4512 9.85413L29.4201 9.8794L29.3873 9.90606L29.3538 9.93184L29.3195 9.95799L29.2842 9.98427L29.2481 10.01L29.2115 10.0358L29.2106 10.0366L29.2008 10.0435L29.1349 10.0871L29.0954 10.1124L29.0551 10.1378L29.0142 10.1633L28.9721 10.1886L28.9297 10.2136L28.8858 10.2386L28.7964 10.2886L28.7504 10.3132L28.7038 10.3382L28.6126 10.3846L28.6081 10.387L28.5585 10.4113L28.5089 10.4358L28.4582 10.4597L28.4066 10.4838L28.2481 10.5552L28.1936 10.579L28.1386 10.6024C29.3239 11.1023 29.9986 11.6776 29.9986 12.2889V17.7101C29.9986 18.3213 29.3239 18.8963 28.1386 19.3961C29.3239 19.8961 29.9986 20.4713 29.9986 21.0827V26.5039H29.9991ZM24.9993 14.9995H17.4995L18.7495 6.24972L7.49991 19.9991H14.9997L13.7497 28.7489L24.9993 14.9995ZM13.7497 9.99961L14.9997 1.24987L3.75014 14.9992H9.65908L13.7498 9.99948L13.7497 9.99961Z" fill="#20A8D8"/>
</svg>
