<svg width="19" height="19" viewBox="0 0 19 19" fill="none" xmlns="http://www.w3.org/2000/svg">
<path d="M7.71493 0.902345C7.6328 0.902198 7.55145 0.918241 7.47552 0.949555C7.39959 0.98087 7.33058 1.02684 7.27243 1.08484L1.08493 7.27234C0.967766 7.38955 0.901943 7.54849 0.901943 7.71422C0.901943 7.87995 0.967766 8.03889 1.08493 8.1561C1.68493 8.75609 2.42494 8.89109 2.96369 8.89109C3.18493 8.89109 3.38243 8.86859 3.53868 8.84234L7.45618 12.7598C7.35306 13.1754 7.28614 13.599 7.25618 14.0261C7.19868 14.9036 7.29618 16.1348 8.15618 16.9948C8.27339 17.112 8.43233 17.1778 8.59806 17.1778C8.76379 17.1778 8.92273 17.112 9.03994 16.9948L12.5762 13.4598L16.5537 17.4373C16.7974 17.6811 18.0774 18.5648 18.3212 18.3211C18.5649 18.0773 17.6812 16.7961 17.4374 16.5536L13.4599 12.5761L16.9949 9.03984C17.1121 8.92264 17.1779 8.7637 17.1779 8.59797C17.1779 8.43224 17.1121 8.2733 16.9949 8.1561C16.1349 7.29609 14.9037 7.19734 14.0262 7.25609C13.5991 7.28602 13.1754 7.35294 12.7599 7.45609L8.84243 3.53984C8.87513 3.34949 8.89186 3.15674 8.89244 2.96359C8.89244 2.42609 8.75743 1.68609 8.15618 1.08484C8.03905 0.968009 7.88037 0.90238 7.71493 0.902345Z" fill="white"/>
</svg>
