<?xml version="1.0" encoding="UTF-8"?>
<!DOCTYPE svg PUBLIC "-//W3C//DTD SVG 1.1//EN" "http://www.w3.org/Graphics/SVG/1.1/DTD/svg11.dtd">
<!-- Creator: CorelDRAW 2019 (64-Bit) -->
<svg xmlns="http://www.w3.org/2000/svg" xml:space="preserve" width="16.0001mm" height="16mm" version="1.1" style="shape-rendering:geometricPrecision; text-rendering:geometricPrecision; image-rendering:optimizeQuality; fill-rule:evenodd; clip-rule:evenodd"
viewBox="0 0 1585.89 1585.88"
 xmlns:xlink="http://www.w3.org/1999/xlink"
 xmlns:xodm="http://www.corel.com/coreldraw/odm/2003">
 <defs>
  <style type="text/css">
   <![CDATA[
    .fil0 {fill:white;fill-rule:nonzero}
   ]]>
  </style>
 </defs>
 <g id="Layer_x0020_1">
  <metadata id="CorelCorpID_0Corel-Layer"/>
  <path class="fil0" d="M1221.79 1129.44l344.73 -344.8c15.78,-15.65 22.44,-38.22 18.02,-60.01 -4.49,-21.73 -19.61,-39.81 -40.27,-47.99 -109.51,-43.68 -206.58,-62.47 -286.55,-68.45l-647.17 647.19c5.84,81.76 24,180.55 66.87,288.23 8.19,20.67 26.21,35.72 47.92,40.27 4.5,0.85 8.92,1.32 13.34,1.32 17.37,0 34.2,-6.8 46.67,-19.34l343.07 -343.08 343.02 343.08c12.88,12.88 29.77,19.34 46.67,19.34 16.9,0 33.8,-6.46 46.67,-19.34 25.81,-25.81 25.81,-67.54 0,-93.35l-343.02 -343.07zm-1109.08 437.1c-12.88,12.88 -29.77,19.34 -46.67,19.34 -16.9,0 -33.8,-6.46 -46.67,-19.34 -25.81,-25.81 -25.81,-67.54 0,-93.35l512.82 -512.83 -270.98 -318.5c-53.8,1.39 -155.13,-5.41 -236.2,-69.84 -14.79,-11.63 -23.84,-29.12 -24.89,-47.86 -1.13,-18.81 5.88,-37.24 19.21,-50.51l453.65 -453.65c13.2,-13.2 31.69,-19.93 50.23,-19.28 18.75,1.06 36.18,9.97 47.86,24.56 3.5,4.35 78.89,99.88 70.64,240.09l316.3 269.13 515.15 -515.16c12.88,-12.88 29.77,-19.34 46.67,-19.34 16.9,0 33.8,6.46 46.67,19.34 25.81,25.81 25.81,67.54 0,93.35l-1453.81 1453.85z"/>
 </g>
</svg>
