<svg width="30" height="30" viewBox="0 0 30 30" fill="none" xmlns="http://www.w3.org/2000/svg">
<path fill-rule="evenodd" clip-rule="evenodd" d="M21.2498 26.25H28.7499V28.75H21.2498V26.25ZM1.24988 26.25H8.74991V28.75H1.24988V26.25ZM28.7484 21.25H16.2499V25H18.7501V30H11.2499V25H13.7499V21.25H1.25151H1.25001C0.559679 21.25 0 20.6903 0 20V1.25001C0 0.559679 0.559679 0 1.25001 0H28.75C29.4403 0 30 0.559679 30 1.25001V20C30 20.6903 29.4403 21.25 28.75 21.25H28.7485H28.7484ZM14.9999 18.75C10.52 18.75 6.87497 15.1052 6.87497 10.625C6.87497 6.14478 10.52 2.50001 14.9999 2.50001C19.4799 2.50001 23.1249 6.14478 23.1249 10.625C23.1249 15.1052 19.4799 18.75 14.9999 18.75ZM19.9014 11.9414C20.0521 12.537 18.4032 12.3482 18.0003 12.9057C17.5974 13.4631 16.6127 13.0885 16.3844 12.9814C16.156 12.8741 15.2816 13.2312 15.3579 12.6243C15.4339 12.0169 15.9659 11.9812 16.5364 11.7314C17.1066 11.4818 17.9292 10.6514 17.525 10.5429C15.622 10.0324 14.9729 8.24493 14.9729 8.24493C14.8587 8.22343 14.8874 6.98109 14.3932 6.94538C13.8987 6.90967 13.6324 7.08822 12.9103 6.94538C12.1877 6.80266 12.34 6.33842 12.2258 5.33839C12.1119 4.33824 12.5304 4.65976 12.7562 4.33849C12.7759 4.31032 12.8018 4.28518 12.8269 4.26003C10.1811 5.16587 8.27272 7.6762 8.27272 10.6251C8.27272 10.6298 8.27297 10.6345 8.27297 10.6391C8.76475 10.6708 9.66016 10.7746 9.70228 11.112C9.76038 11.5779 9.70228 12.1602 10.1099 12.3348C10.5177 12.5096 10.6342 11.6359 10.9836 11.8689C11.3329 12.102 12.2648 12.3261 12.2648 12.7382C12.2648 13.15 12.0901 13.7908 12.2648 13.9074C12.4394 14.0238 13.1379 14.8391 13.1382 14.9554C13.1384 15.072 13.3843 15.6644 13.311 15.8908C13.2502 16.0784 12.9432 16.6615 12.6458 16.9266C13.3789 17.2011 14.1718 17.3522 14.9997 17.3522C18.7092 17.3522 21.727 14.3345 21.727 10.6251C21.727 9.52649 21.4605 8.48937 20.9916 7.57258C21.0367 8.25662 21.0063 8.88005 21.156 9.08439C21.8117 9.97703 19.559 10.5912 19.9011 11.9413L19.9014 11.9414Z" fill="#20A8D8"/>
</svg>
