<svg width="30" height="30" viewBox="0 0 30 30" fill="none" xmlns="http://www.w3.org/2000/svg">
<path fill-rule="evenodd" clip-rule="evenodd" d="M2.4999 13.75H27.5V9.99996H30V0H0V9.99996H2.50002V13.75H2.4999ZM2.4999 30H27.5V26.25H30V16.25H0V26.25H2.50002V30H2.4999ZM2.50002 22.4999H8.75007L8.74995 18.7499H2.4999L2.50002 22.4999ZM21.2501 22.4999H27.5L27.4999 18.7499H21.2499L21.2501 22.4999ZM11.25 22.4999H18.75L18.7499 18.7499H11.2498L11.25 22.4999ZM2.4999 6.2752H8.74995L8.75007 2.4999H2.50002L2.4999 6.2752ZM21.2499 6.2752H27.4999L27.5 2.4999H21.2501L21.2499 6.2752ZM11.2498 6.2752H18.7499L18.75 2.4999H11.25L11.2498 6.2752Z" fill="#20A8D8"/>
</svg>
