<svg width="30" height="30" viewBox="0 0 30 30" fill="none" xmlns="http://www.w3.org/2000/svg">
<path d="M30 7.87519C30 7.04186 29.35 6.32519 28.3333 5.77519L19.1667 0.900191C17.8783 0.307099 16.4767 0 15.0583 0C13.64 0 12.2384 0.307099 10.95 0.900191L1.66667 5.77519C1.24927 5.94649 0.879607 6.21641 0.589342 6.56182C0.299077 6.90724 0.0968571 7.31786 0 7.75852L0 7.87519V12.7502C0.0532504 13.2302 0.236655 13.6865 0.530395 14.0698C0.824136 14.4532 1.21704 14.7489 1.66667 14.9252L10.8333 19.8002C12.1217 20.3933 13.5233 20.7004 14.9417 20.7004C16.36 20.7004 17.7616 20.3933 19.05 19.8002L28.2167 14.9252C29.3417 14.3252 29.8833 13.5419 29.8833 12.7502L30 7.87519ZM4.16667 6.66686L12.575 2.20019C13.3361 1.8523 14.1632 1.67225 15 1.67225C15.8368 1.67225 16.6639 1.8523 17.425 2.20019L25.8333 6.66686C27.1667 7.37519 27.1667 8.52519 25.8333 9.23352L17.425 13.7002C16.6639 14.0481 15.8368 14.2281 15 14.2281C14.1632 14.2281 13.3361 14.0481 12.575 13.7002L4.16667 9.23352C2.81667 8.52519 2.81667 7.37519 4.16667 6.66686ZM28.3333 17.9752L19.1667 22.8502C17.8771 23.439 16.476 23.7437 15.0583 23.7437C13.6407 23.7437 12.2396 23.439 10.95 22.8502L1.66667 17.9752C1.2226 17.8001 0.833693 17.5089 0.540527 17.1322C0.247362 16.7555 0.0606909 16.307 0 15.8335L0 22.0919C0.0532504 22.5718 0.236655 23.0282 0.530395 23.4115C0.824136 23.7948 1.21704 24.0906 1.66667 24.2669L10.8333 29.1419C12.1217 29.7349 13.5233 30.042 14.9417 30.042C16.36 30.042 17.7616 29.7349 19.05 29.1419L28.2167 24.2669C29.3417 23.6669 29.8833 22.8835 29.8833 22.0919V15.8335C29.8334 16.2944 29.6642 16.7344 29.3924 17.11C29.1206 17.4855 28.7556 17.7837 28.3333 17.9752Z" fill="#20A8D8"/>
</svg>
