<svg width="30" height="30" viewBox="0 0 30 30" fill="none" xmlns="http://www.w3.org/2000/svg">
<path fill-rule="evenodd" clip-rule="evenodd" d="M1.25001 26.2501H8.75007V28.7501H1.25001V26.2501ZM1.25001 20C0.559682 20 0 19.4404 0 18.75V11.25C0 10.5596 0.559682 9.99996 1.25001 9.99996H28.7501C29.4404 9.99996 30.0001 10.5596 30.0001 11.25V18.75C30.0001 19.4404 29.4404 20 28.7501 20H1.25001ZM6.25005 16.25C6.25005 16.9403 5.69037 17.5 5.00004 17.5C4.30971 17.5 3.75003 16.9403 3.75003 16.25V13.75C3.75003 13.0597 4.30971 12.5 5.00004 12.5C5.69037 12.5 6.25005 13.0597 6.25005 13.75V16.25ZM26.2501 16.25C26.2501 16.9403 25.6904 17.5 25.0001 17.5C24.3098 17.5 23.7501 16.9403 23.7501 16.25V13.75C23.7501 13.0597 24.3098 12.5 25.0001 12.5C25.6904 12.5 26.2501 13.0597 26.2501 13.75V16.25ZM21.2501 16.25C21.2501 16.9403 20.6904 17.5 20 17.5C19.3097 17.5 18.75 16.9403 18.75 16.25V13.75C18.75 13.0597 19.3097 12.5 20 12.5C20.6904 12.5 21.2501 13.0597 21.2501 13.75V16.25ZM16.25 16.25C16.25 16.9403 15.6903 17.5 15 17.5C14.3097 17.5 13.75 16.9403 13.75 16.25V13.75C13.75 13.0597 14.3097 12.5 15 12.5C15.6903 12.5 16.25 13.0597 16.25 13.75V16.25ZM11.25 16.25C11.25 16.9403 10.6903 17.5 9.99996 17.5C9.30963 17.5 8.74995 16.9403 8.74995 16.25V13.75C8.74995 13.0597 9.30963 12.5 9.99996 12.5C10.6903 12.5 11.25 13.0597 11.25 13.75V16.25ZM1.25001 3.75003H8.75007V1.25001H1.25001V3.75003ZM21.2501 3.75003H28.7501V1.25001H21.2501V3.75003ZM16.25 7.50006V5.00004H18.75V0H11.25V5.00004H13.75V7.50006H16.25ZM21.2501 26.2501H28.7501V28.7501H21.2501V26.2501ZM16.25 22.5001V25.0001H18.75V30.0001H11.25V25.0001H13.75V22.5001H16.25Z" fill="#20A8D8"/>
</svg>
