<svg width="14" height="14" viewBox="0 0 14 14" fill="none" xmlns="http://www.w3.org/2000/svg">
<path fill-rule="evenodd" clip-rule="evenodd" d="M6.99996 0C10.866 0 13.9999 3.13401 13.9999 6.99996C13.9999 10.866 10.8659 13.9999 6.99996 13.9999C3.13393 13.9999 0 10.8659 0 6.99996C0 3.13393 3.13401 0 6.99996 0ZM6.02508 8.23631V7.737C6.02508 7.35855 6.10233 7.03756 6.25691 6.77599C6.4114 6.51645 6.68692 6.26079 7.08117 6.01317C7.39421 5.81701 7.62021 5.63868 7.75687 5.48013C7.89564 5.32167 7.96291 5.13929 7.96291 4.93527C7.96291 4.77275 7.88964 4.64395 7.74301 4.54887C7.59637 4.45574 7.40419 4.40815 7.16839 4.40815C6.58389 4.40815 5.90026 4.61429 5.11757 5.02832L4.31114 3.44908C5.27409 2.90025 6.28065 2.62482 7.33083 2.62482C8.1927 2.62482 8.87042 2.81506 9.36179 3.19352C9.85315 3.57197 10.1008 4.0892 10.1008 4.743C10.1008 5.2107 9.98981 5.61688 9.77185 5.95764C9.55389 6.30034 9.20315 6.62539 8.7237 6.93048C8.31753 7.19399 8.06196 7.38627 7.96088 7.50712C7.85777 7.63001 7.80639 7.77461 7.80639 7.94102V8.23622H6.02508V8.23631ZM5.77534 10.2653C5.77534 9.91062 5.87845 9.63528 6.0845 9.44106C6.29257 9.24879 6.59767 9.15168 6.99996 9.15168C7.38636 9.15168 7.68359 9.24879 7.88964 9.44495C8.09762 9.64111 8.20074 9.9146 8.20074 10.2652C8.20074 10.6179 8.09374 10.8914 7.87966 11.0855C7.66373 11.2777 7.37047 11.3748 6.99996 11.3748C6.61559 11.3748 6.31641 11.2798 6.10039 11.0875C5.88242 10.8953 5.77543 10.6219 5.77543 10.2652L5.77534 10.2653Z" fill="#20A8D8"/>
</svg>
